<svg width="150" height="150" viewBox="0 0 150 150" fill="none" xmlns="http://www.w3.org/2000/svg">
<path d="M31.25 6.25C20.8906 6.25 12.5 14.6406 12.5 25V125C12.5 135.359 20.8906 143.75 31.25 143.75H131.25V6.25H31.25ZM118.75 131.25H31.25C29.5924 131.25 28.0027 130.592 26.8306 129.419C25.6585 128.247 25 126.658 25 125C25 123.342 25.6585 121.753 26.8306 120.581C28.0027 119.408 29.5924 118.75 31.25 118.75H118.75V131.25ZM118.75 106.25H31.25C29.0547 106.25 26.9578 106.647 25 107.339V25C25 21.5469 27.7969 18.75 31.25 18.75H118.75V106.25Z" fill="#0275d8"/>
</svg>
