<svg width="150" height="150" viewBox="0 0 150 150" fill="none" xmlns="http://www.w3.org/2000/svg">
<path d="M77.8125 9.375C36.5625 9.375 0 33.75 0 61.875C0 80.625 10.3125 96.5625 28.125 105.938C45.9375 115.312 28.125 106.875 28.125 106.875C27.1875 119.062 19.6875 122.812 19.6875 122.812L2.8125 131.25H21.5625C45 131.25 61.875 120.938 69.375 113.438H76.875C117.188 113.438 150 90 150 60.9375C150 31.875 118.125 9.375 77.8125 9.375ZM76.875 104.062H66.5625L64.6875 105.938C60 110.625 49.6875 119.062 33.75 121.875C36.5625 117.188 38.4375 111.562 38.4375 103.125V100.312L35.625 99.375C18.75 90.9375 9.375 77.8125 9.375 61.875C9.375 39.375 42.1875 18.75 77.8125 18.75C112.5 18.75 140.625 37.5 140.625 61.875C140.625 84.375 111.562 104.062 76.875 104.062Z" fill="#0275d8"/>
<path d="M56.25 65.625C56.25 68.1114 55.2623 70.496 53.5041 72.2541C51.746 74.0123 49.3614 75 46.875 75C44.3886 75 42.004 74.0123 40.2459 72.2541C38.4877 70.496 37.5 68.1114 37.5 65.625C37.5 63.1386 38.4877 60.754 40.2459 58.9959C42.004 57.2377 44.3886 56.25 46.875 56.25C49.3614 56.25 51.746 57.2377 53.5041 58.9959C55.2623 60.754 56.25 63.1386 56.25 65.625Z" fill="#0275d8"/>
<path d="M84.375 65.625C84.375 68.1114 83.3873 70.496 81.6291 72.2541C79.871 74.0123 77.4864 75 75 75C72.5136 75 70.129 74.0123 68.3709 72.2541C66.6127 70.496 65.625 68.1114 65.625 65.625C65.625 63.1386 66.6127 60.754 68.3709 58.9959C70.129 57.2377 72.5136 56.25 75 56.25C77.4864 56.25 79.871 57.2377 81.6291 58.9959C83.3873 60.754 84.375 63.1386 84.375 65.625Z" fill="#0275d8"/>
<path d="M112.5 65.625C112.5 68.1114 111.512 70.496 109.754 72.2541C107.996 74.0123 105.611 75 103.125 75C100.639 75 98.254 74.0123 96.4959 72.2541C94.7377 70.496 93.75 68.1114 93.75 65.625C93.75 63.1386 94.7377 60.754 96.4959 58.9959C98.254 57.2377 100.639 56.25 103.125 56.25C105.611 56.25 107.996 57.2377 109.754 58.9959C111.512 60.754 112.5 63.1386 112.5 65.625Z" fill="#0275d8"/>
</svg>
