<svg width="69" height="69" viewBox="0 0 69 69" fill="none" xmlns="http://www.w3.org/2000/svg">
<path fill-rule="evenodd" clip-rule="evenodd" d="M33.0663 4.31269C33.1129 4.31256 33.1595 4.3125 33.2062 4.3125C52.1812 4.3125 69 15.525 69 28.4625C69 37.0875 64.2562 44.4188 56.0625 48.7313C47.8687 53.0438 56.0625 49.1625 56.0625 49.1625C56.4938 54.7687 59.9438 56.4938 59.9438 56.4938L67.7062 60.375H59.0813C48.3 60.375 40.5375 55.6313 37.0875 52.1813H33.6375C15.0937 52.1813 0 41.4 0 28.0313C0 23.8092 1.46244 19.8882 4.04772 16.4992C5.51187 16.7166 7.01021 16.8293 8.53484 16.8293C8.92713 16.8293 9.31769 16.8218 9.70636 16.807C6.31122 20.048 4.3125 24.0554 4.3125 28.4625C4.3125 38.8125 17.6813 47.8688 33.6375 47.8688H38.3813L39.2437 48.7313C41.4 50.8875 46.1438 54.7687 53.475 56.0625C52.1813 53.9063 51.3188 51.3188 51.3188 47.4375V46.1437L52.6125 45.7125C60.375 41.8313 64.6875 35.7938 64.6875 28.4625C64.6875 18.1125 49.5937 8.625 33.2062 8.625C31.7958 8.625 30.4089 8.69239 29.0525 8.82302C30.5344 7.45791 31.88 5.94687 33.0663 4.31269Z" fill="#f8f9fa"/>
<path d="M14.4846 28.1039C14.7731 28.6001 14.9174 29.0791 14.9174 29.5407C14.9174 29.6445 14.9058 29.7368 14.8828 29.8176C14.8712 29.9099 14.8539 30.0023 14.8308 30.0946C14.6347 30.0715 14.4269 30.0542 14.2077 30.0426C14 30.0311 13.7807 30.0253 13.5499 30.0253C13.2729 30.0253 12.9902 30.0311 12.7017 30.0426C12.4247 30.0657 12.1132 30.0946 11.7669 30.1292C11.4207 30.1638 11.0341 30.21 10.6071 30.2677C10.1802 30.3254 9.68394 30.4004 9.11848 30.4927C8.85306 30.4004 8.58764 30.2158 8.32222 29.9388C8.05679 29.6734 7.80868 29.3502 7.57788 28.9694C7.69328 28.7155 7.83753 28.404 8.01063 28.0347C8.18373 27.6539 8.38569 27.198 8.61649 26.6672C8.84729 26.1248 9.10117 25.4959 9.37813 24.7804C9.66663 24.0534 9.97245 23.2167 10.2956 22.2704C10.5033 21.6473 10.6822 21.0991 10.8322 20.626C10.9822 20.1528 11.1149 19.697 11.2303 19.2585C11.3573 18.8084 11.4784 18.341 11.5938 17.8563C11.7092 17.3717 11.8362 16.812 11.9746 16.1773C12.4363 16.2696 12.8344 16.4427 13.1691 16.6966C13.5153 16.9389 13.8442 17.2909 14.1557 17.7525C14.0634 17.9025 13.9423 18.1448 13.7922 18.4795C13.6422 18.8142 13.4633 19.2238 13.2556 19.7085C13.0594 20.1817 12.8402 20.7241 12.5978 21.3357C12.3555 21.9358 12.1016 22.582 11.8362 23.2744C11.5823 23.9553 11.3342 24.5957 11.0918 25.1958C10.8495 25.7959 10.6302 26.3383 10.434 26.823C10.2494 27.3077 10.0994 27.7231 9.98399 28.0693C9.86859 28.4155 9.81088 28.6752 9.81088 28.8483C9.99553 28.8367 10.1629 28.8252 10.3129 28.8136C10.4629 28.8021 10.6187 28.7848 10.7803 28.7617C10.9418 28.7271 11.1149 28.6925 11.2996 28.6578C11.4957 28.6117 11.7265 28.554 11.992 28.4847C12.2228 28.427 12.4363 28.3809 12.6325 28.3463C12.8286 28.3001 13.019 28.2655 13.2037 28.2424C13.3999 28.2078 13.5961 28.1847 13.7922 28.1732C14 28.1501 14.2308 28.127 14.4846 28.1039ZM24.2404 21.7165C24.6213 21.7165 24.9155 21.8204 25.1233 22.0281C25.3425 22.2358 25.4521 22.5243 25.4521 22.8936C25.4521 22.9859 25.4406 23.084 25.4175 23.1879C25.406 23.2802 25.3887 23.361 25.3656 23.4302C25.2156 23.4071 25.0482 23.3898 24.8636 23.3783C24.679 23.3552 24.4597 23.3436 24.2058 23.3436C23.7096 23.3436 23.2076 23.3898 22.6998 23.4821C22.1921 23.5629 21.7074 23.6321 21.2458 23.6898C20.9804 24.3015 20.738 24.8958 20.5188 25.4728C20.2995 26.0382 20.1091 26.5576 19.9475 27.0307C19.7975 27.5038 19.6763 27.9135 19.584 28.2597C19.5032 28.6059 19.4571 28.8656 19.4455 29.0387C20.3803 28.8425 21.3208 28.6752 22.2671 28.5367C23.2249 28.3982 24.2289 28.2943 25.2791 28.2251C25.406 28.4213 25.5099 28.6348 25.5906 28.8656C25.683 29.0964 25.7291 29.3445 25.7291 29.6099C25.7291 29.6791 25.7291 29.7541 25.7291 29.8349C25.7291 29.9157 25.7176 29.9965 25.6945 30.0773C25.3714 30.0657 25.0309 30.0542 24.6732 30.0426C24.3155 30.0426 23.8481 30.0426 23.2711 30.0426C22.8903 30.0426 22.5267 30.0484 22.1805 30.06C21.8459 30.083 21.5054 30.1119 21.1592 30.1465C20.813 30.1811 20.4438 30.2273 20.0514 30.285C19.6706 30.3427 19.2378 30.4119 18.7531 30.4927C18.2223 30.285 17.7088 29.7772 17.2125 28.9694C17.4087 28.554 17.6799 27.925 18.0261 27.0826C18.3839 26.2287 18.8339 25.092 19.3763 23.6725C18.857 23.511 18.5166 23.2225 18.355 22.807C18.4127 22.7493 18.58 22.6801 18.857 22.5993C19.134 22.507 19.4744 22.4147 19.8783 22.3223C20.0514 21.8723 20.1956 21.4799 20.311 21.1453C20.438 20.8106 20.5476 20.499 20.6399 20.2105C20.7323 19.9105 20.813 19.622 20.8823 19.345C20.9631 19.0565 21.0381 18.7449 21.1073 18.4103C20.7034 18.3872 20.3861 18.2776 20.1553 18.0814C19.9245 17.8737 19.8091 17.6082 19.8091 17.2851C19.8091 17.1928 19.8206 17.0832 19.8437 16.9562C19.8783 16.8293 19.9129 16.7197 19.9475 16.6273C20.1783 16.6619 20.3976 16.685 20.6053 16.6966C20.8246 16.7081 21.1073 16.7139 21.4535 16.7139C22.1805 16.7139 22.8614 16.6966 23.4961 16.6619C24.1308 16.6158 24.702 16.5696 25.2098 16.5235C25.7291 16.4773 26.1734 16.4369 26.5427 16.4023C26.912 16.3561 27.1947 16.3331 27.3909 16.3331C27.6563 16.3331 27.8929 16.4715 28.1006 16.7485C28.3083 17.0255 28.4641 17.4178 28.568 17.9256C28.2102 17.891 27.916 17.8679 27.6852 17.8563C27.4659 17.8448 27.2697 17.839 27.0966 17.839C26.4619 17.839 25.8791 17.8737 25.3483 17.9429C24.829 18.0006 24.327 18.0641 23.8423 18.1333C23.7731 18.2372 23.6923 18.3699 23.6 18.5314C23.5192 18.693 23.4096 18.918 23.2711 19.2065C23.1326 19.495 22.9595 19.8585 22.7518 20.2971C22.5556 20.7356 22.3133 21.2837 22.0247 21.9415C22.4633 21.8723 22.8729 21.8204 23.2538 21.7857C23.6461 21.7396 23.975 21.7165 24.2404 21.7165ZM31.6441 18.6007C31.1825 18.6007 30.8248 18.4737 30.5709 18.2199C30.3286 17.9544 30.2074 17.6371 30.2074 17.2678C30.2074 17.1755 30.2189 17.0659 30.242 16.9389C30.2766 16.812 30.317 16.7023 30.3632 16.61C30.5132 16.6793 30.7325 16.7312 31.021 16.7658C31.321 16.7889 31.6672 16.8004 32.0596 16.8004C32.6481 16.8004 33.3117 16.7774 34.0502 16.7312C34.8003 16.6735 35.5158 16.6158 36.1967 16.5581C36.8775 16.5004 37.4776 16.4485 37.9969 16.4023C38.5162 16.3446 38.8509 16.3157 39.0009 16.3157C39.4279 16.3157 39.7337 16.4773 39.9184 16.8004C40.1145 17.112 40.2588 17.5332 40.3511 18.0641C40.0511 18.041 39.751 18.0237 39.451 18.0121C39.1625 17.9891 38.9144 17.9775 38.7066 17.9775C38.3374 17.9775 37.9623 17.9891 37.5815 18.0121C37.2122 18.0352 36.8371 18.0698 36.4563 18.116C36.2948 18.4507 36.1159 18.8488 35.9197 19.3104C35.7235 19.7605 35.5274 20.2336 35.3312 20.7298C35.1465 21.226 34.9677 21.7223 34.7946 22.2185C34.6215 22.7032 34.4714 23.1417 34.3445 23.5341C34.0906 24.2957 33.8656 24.9996 33.6694 25.6459C33.4848 26.2921 33.3174 26.898 33.1674 27.4634C33.0289 28.0174 32.9078 28.5482 32.8039 29.056C32.7 29.5637 32.6077 30.06 32.5269 30.5446C31.7537 30.4292 31.1075 29.9446 30.5882 29.0906C30.6805 28.7329 30.7902 28.3463 30.9171 27.9308C31.0556 27.5038 31.2114 27.0249 31.3845 26.4941C31.5691 25.9517 31.7826 25.3401 32.0249 24.6592C32.2673 23.9783 32.5442 23.2052 32.8558 22.3397C32.9712 22.0165 33.0924 21.6819 33.2193 21.3357C33.3463 20.9779 33.4674 20.626 33.5829 20.2798C33.7098 19.9336 33.8194 19.5989 33.9117 19.2758C34.0156 18.9527 34.1022 18.6584 34.1714 18.393C33.6867 18.4507 33.2251 18.5026 32.7866 18.5487C32.3596 18.5834 31.9788 18.6007 31.6441 18.6007ZM41.5622 19.9855C41.493 19.9278 41.4295 19.8355 41.3718 19.7085C41.3141 19.57 41.2852 19.4431 41.2852 19.3277C41.5738 18.843 41.7815 18.3583 41.9084 17.8737C42.0354 17.3774 42.0988 16.8235 42.0988 16.2119C42.0988 15.7503 42.0642 15.2425 41.995 14.6886C42.2835 14.7117 42.5662 14.7636 42.8432 14.8444C43.1317 14.9136 43.3855 15.006 43.6048 15.1214C43.8356 15.2252 44.026 15.3522 44.176 15.5022C44.3261 15.6407 44.4184 15.7791 44.453 15.9176C44.0145 17.8448 43.0509 19.2008 41.5622 19.9855ZM48.7463 22.2012C48.7347 22.4204 48.6943 22.6512 48.6251 22.8936C48.5674 23.1244 48.4924 23.3379 48.4001 23.5341C48.3077 23.7187 48.2096 23.8745 48.1058 24.0014C48.0019 24.1284 47.9038 24.1918 47.8115 24.1918C47.6846 24.1803 47.6096 24.0937 47.5865 23.9322C47.5865 23.8976 47.598 23.8456 47.6211 23.7764C47.6557 23.6956 47.6903 23.6091 47.725 23.5167C47.7596 23.4244 47.7884 23.3321 47.8115 23.2398C47.8461 23.1475 47.8634 23.0667 47.8634 22.9974C47.8634 22.8359 47.8231 22.7032 47.7423 22.5993C47.673 22.4839 47.5749 22.4262 47.448 22.4262C46.9864 22.4262 46.6344 22.7147 46.3921 23.2917C46.1497 23.8687 46.0286 24.7169 46.0286 25.8363C46.0286 25.9517 46.0343 26.0209 46.0459 26.044C46.2882 26.0325 46.5017 26.0267 46.6864 26.0267C46.8825 26.0152 47.073 26.0094 47.2576 26.0094C47.2691 26.0325 47.2749 26.0786 47.2749 26.1479C47.2749 26.2517 47.2518 26.3268 47.2057 26.3729C46.9402 26.4306 46.7268 26.4825 46.5652 26.5287C46.4152 26.5633 46.2998 26.5979 46.219 26.6326C46.1382 26.6672 46.0863 26.7076 46.0632 26.7537C46.0517 26.7884 46.0459 26.8403 46.0459 26.9095C46.0459 27.0018 46.0459 27.0942 46.0459 27.1865C46.0574 27.2788 46.0632 27.3942 46.0632 27.5327C46.0632 28.5021 45.7978 29.281 45.2669 29.8695C44.7476 30.4581 44.0206 30.7985 43.0859 30.8908C42.9243 30.8793 42.757 30.8331 42.5839 30.7524C42.4108 30.6716 42.2434 30.5677 42.0819 30.4408C41.9319 30.3138 41.7991 30.1696 41.6837 30.008C41.5683 29.858 41.4876 29.7022 41.4414 29.5407C41.4414 29.1021 41.5337 28.6867 41.7184 28.2943C41.903 27.8904 42.1511 27.5385 42.4627 27.2384C42.7858 26.9268 43.1609 26.6787 43.5879 26.4941C44.0264 26.2979 44.4995 26.1825 45.0073 26.1479C45.0073 25.8594 44.9784 25.5766 44.9207 25.2997C44.863 25.0227 44.7996 24.7573 44.7303 24.5034C44.6726 24.238 44.6149 23.9841 44.5572 23.7418C44.4995 23.4879 44.4707 23.2398 44.4707 22.9974C44.4707 22.6859 44.5341 22.38 44.6611 22.08C44.788 21.7684 44.9554 21.4857 45.1631 21.2318C45.3708 20.9664 45.6131 20.7414 45.8901 20.5567C46.1671 20.3721 46.4556 20.2451 46.7556 20.1759C46.8825 20.2105 47.0499 20.3144 47.2576 20.4875C47.4769 20.649 47.6903 20.8337 47.8981 21.0414C48.1058 21.2491 48.2904 21.4626 48.452 21.6819C48.6136 21.8896 48.7116 22.0627 48.7463 22.2012ZM43.0339 30.0946C43.3109 29.9792 43.5705 29.8118 43.8129 29.5926C44.0668 29.3733 44.286 29.1252 44.4707 28.8483C44.6553 28.5713 44.7996 28.277 44.9034 27.9654C45.0188 27.6539 45.0765 27.348 45.0765 27.048C44.8457 27.0826 44.5918 27.1923 44.3149 27.3769C44.0379 27.55 43.7783 27.7635 43.5359 28.0174C43.2936 28.2597 43.0916 28.5136 42.9301 28.779C42.7685 29.0444 42.6877 29.2752 42.6877 29.4714C42.6877 29.7253 42.8031 29.933 43.0339 30.0946ZM50.1317 25.8363C50.1317 25.5247 50.2125 25.0747 50.374 24.4861C50.5471 23.886 50.7664 23.2282 51.0318 22.5128C51.2972 21.7857 51.5973 21.0414 51.9319 20.2798C52.2666 19.5066 52.6012 18.7853 52.9359 18.116C53.2821 17.4467 53.611 16.8697 53.9226 16.385C54.2342 15.8888 54.5054 15.5599 54.7362 15.3983C54.9208 15.4329 55.117 15.5195 55.3247 15.658C55.544 15.7849 55.7459 15.9349 55.9306 16.108C56.1152 16.2696 56.2768 16.4427 56.4152 16.6273C56.5537 16.812 56.6345 16.9735 56.6576 17.112C56.069 17.5967 55.4863 18.2025 54.9093 18.9296C54.3323 19.6451 53.7956 20.4413 53.2994 21.3184C52.8147 22.1954 52.3878 23.1359 52.0185 24.1399C51.6492 25.1324 51.3722 26.1479 51.1876 27.1865C51.0491 27.1519 50.9106 27.1115 50.7721 27.0653C50.6452 27.0076 50.5356 26.9326 50.4433 26.8403C50.3509 26.748 50.2759 26.621 50.2182 26.4595C50.1605 26.2979 50.1317 26.0902 50.1317 25.8363ZM49.7508 30.4235C49.6124 30.4235 49.4797 30.3889 49.3527 30.3196C49.2258 30.2619 49.1104 30.1869 49.0065 30.0946C48.9142 30.0138 48.8392 29.9215 48.7815 29.8176C48.7238 29.7253 48.6949 29.6503 48.6949 29.5926C48.6949 29.4541 48.7122 29.2752 48.7469 29.056C48.7815 28.8367 48.8334 28.629 48.9027 28.4328C48.9719 28.2251 49.0584 28.052 49.1623 27.9135C49.2662 27.7635 49.3816 27.6885 49.5085 27.6885C49.8316 27.6885 50.1548 27.8039 50.4779 28.0347C50.8125 28.2539 51.0607 28.5021 51.2222 28.779C51.0837 28.929 50.9626 29.0964 50.8587 29.281C50.7548 29.4772 50.651 29.6561 50.5471 29.8176C50.4433 29.9907 50.3279 30.135 50.2009 30.2504C50.074 30.3658 49.924 30.4235 49.7508 30.4235Z" fill="#f8f9fa"/>
<path d="M20.6857 41.3519V33.6287H21.5838V41.3519H20.6857ZM27.5733 41.3519V37.6065C27.5733 37.1346 27.4659 36.7824 27.251 36.55C27.0362 36.3175 26.7 36.2013 26.2421 36.2013C25.6364 36.2013 25.1925 36.3651 24.9109 36.6926C24.6291 37.0202 24.4882 37.5607 24.4882 38.3143V41.3519H23.6113V35.5621H24.3245L24.4671 36.3546H24.5094C24.689 36.0693 24.9408 35.8492 25.2648 35.6942C25.5888 35.5357 25.9497 35.4565 26.3478 35.4565C27.0451 35.4565 27.5698 35.6255 27.922 35.9636C28.2741 36.2982 28.4502 36.8353 28.4502 37.5748V41.3519H27.5733ZM35.0314 35.5621V36.1168L33.959 36.2436C34.0577 36.3668 34.1457 36.5289 34.2233 36.7296C34.3007 36.9268 34.3394 37.1505 34.3394 37.4005C34.3394 37.9675 34.1457 38.42 33.7583 38.7581C33.371 39.0962 32.8392 39.2653 32.163 39.2653C31.9904 39.2653 31.8285 39.2511 31.677 39.223C31.3037 39.4202 31.1171 39.6685 31.1171 39.9678C31.1171 40.1263 31.1822 40.2443 31.3125 40.3218C31.4428 40.3957 31.6664 40.4328 31.9834 40.4328H33.0082C33.6351 40.4328 34.1158 40.5648 34.4503 40.8288C34.7885 41.0931 34.9575 41.4769 34.9575 41.9805C34.9575 42.6215 34.7004 43.1092 34.1862 43.4438C33.6721 43.7819 32.9219 43.9509 31.9358 43.9509C31.1787 43.9509 30.594 43.81 30.1821 43.5283C29.7735 43.2466 29.5692 42.8486 29.5692 42.3345C29.5692 41.9823 29.6819 41.6776 29.9073 41.4205C30.1327 41.1635 30.4497 40.9891 30.8582 40.8976C30.7103 40.8307 30.5852 40.7268 30.4831 40.5859C30.3845 40.445 30.3352 40.2813 30.3352 40.0946C30.3352 39.8833 30.3916 39.6984 30.5042 39.54C30.617 39.3814 30.7948 39.2283 31.0378 39.0804C30.7384 38.9571 30.4936 38.7476 30.3035 38.4517C30.1169 38.1559 30.0235 37.8179 30.0235 37.4375C30.0235 36.8035 30.2137 36.3157 30.594 35.9742C30.9744 35.6291 31.5133 35.4565 32.2106 35.4565C32.5134 35.4565 32.7864 35.4917 33.0293 35.5621H35.0314ZM30.4144 42.3239C30.4144 42.6373 30.5465 42.875 30.8106 43.0371C31.0747 43.199 31.4534 43.28 31.9464 43.28C32.6824 43.28 33.2266 43.1691 33.5787 42.9472C33.9344 42.7289 34.1123 42.4312 34.1123 42.0545C34.1123 41.741 34.0154 41.5227 33.8218 41.3995C33.6281 41.2796 33.2635 41.2198 32.7282 41.2198H31.677C31.279 41.2198 30.9691 41.3149 30.7473 41.505C30.5254 41.6952 30.4144 41.9682 30.4144 42.3239ZM30.8899 37.4164C30.8899 37.8213 31.0043 38.1278 31.2333 38.3355C31.4622 38.5433 31.7809 38.6472 32.1894 38.6472C33.0452 38.6472 33.473 38.2316 33.473 37.4005C33.473 36.5307 33.0399 36.0956 32.1736 36.0956C31.7615 36.0956 31.4445 36.2066 31.2227 36.4285C31.0008 36.6504 30.8899 36.9796 30.8899 37.4164ZM37.133 41.3519H36.2561V33.1321H37.133V41.3519ZM41.4744 41.4575C40.6186 41.4575 39.9424 41.1969 39.4459 40.6757C38.9529 40.1545 38.7063 39.4308 38.7063 38.5045C38.7063 37.5713 38.9352 36.83 39.3931 36.2805C39.8545 35.7312 40.4724 35.4565 41.2473 35.4565C41.9728 35.4565 42.5468 35.6959 42.9694 36.175C43.3921 36.6504 43.6033 37.279 43.6033 38.0608V38.6154H39.615C39.6325 39.2952 39.8034 39.8112 40.1273 40.1633C40.4549 40.5155 40.9145 40.6916 41.5061 40.6916C42.1295 40.6916 42.7458 40.5613 43.3551 40.3007V41.0825C43.0452 41.2163 42.751 41.3114 42.4728 41.3677C42.1982 41.4276 41.8653 41.4575 41.4744 41.4575ZM41.2367 36.1907C40.7719 36.1907 40.4003 36.3422 40.122 36.6451C39.8474 36.9479 39.6854 37.3671 39.636 37.9024H42.663C42.663 37.3494 42.5398 36.9267 42.2933 36.6345C42.0467 36.3387 41.6945 36.1907 41.2367 36.1907ZM40.587 34.6641C40.756 34.4458 40.9374 34.1817 41.1311 33.8716C41.3283 33.5617 41.4833 33.2924 41.5959 33.0635H42.663V33.1744C42.5081 33.4033 42.2774 33.6851 41.971 34.0196C41.6646 34.3542 41.3987 34.613 41.1733 34.7962H40.587V34.6641ZM48.8745 39.7723C48.8745 40.3112 48.6737 40.7268 48.2722 41.019C47.8708 41.3114 47.3073 41.4575 46.5818 41.4575C45.8141 41.4575 45.2154 41.336 44.7857 41.0931V40.2795C45.064 40.4204 45.3615 40.5313 45.6785 40.6124C45.9989 40.6933 46.3072 40.7338 46.603 40.7338C47.0607 40.7338 47.413 40.6616 47.6595 40.5173C47.9059 40.3693 48.0293 40.1457 48.0293 39.8464C48.0293 39.621 47.9307 39.429 47.7334 39.2706C47.5398 39.1085 47.1594 38.9184 46.5924 38.7C46.0535 38.4993 45.6697 38.3249 45.4408 38.177C45.2154 38.0256 45.0463 37.8548 44.9336 37.6646C44.8245 37.4744 44.7699 37.2472 44.7699 36.9831C44.7699 36.5112 44.9618 36.1397 45.3457 35.8686C45.7296 35.5939 46.2561 35.4565 46.9252 35.4565C47.5486 35.4565 48.1578 35.5833 48.7529 35.8368L48.4413 36.55C47.8603 36.3106 47.3337 36.1907 46.8618 36.1907C46.4462 36.1907 46.1329 36.2559 45.9215 36.3862C45.7102 36.5165 45.6045 36.6962 45.6045 36.9251C45.6045 37.08 45.6432 37.2121 45.7208 37.3213C45.8018 37.4304 45.9303 37.5343 46.1064 37.6329C46.2825 37.7316 46.6205 37.8741 47.1206 38.0608C47.8074 38.3108 48.2705 38.5627 48.51 38.8162C48.7529 39.0698 48.8745 39.3885 48.8745 39.7723Z" fill="#f8f9fa"/>
</svg>
