<svg width="150" height="150" viewBox="0 0 150 150" fill="none" xmlns="http://www.w3.org/2000/svg">
<path d="M54.0541 102.856L101.461 74.7748L54.0541 46.6932V102.856Z" fill="#0275d8"/>
<path d="M132.883 0H17.1171C12.5774 0 8.22357 1.80341 5.01349 5.01349C1.80341 8.22357 0 12.5774 0 17.1171V132.883C0 137.423 1.80341 141.776 5.01349 144.987C8.22357 148.197 12.5774 150 17.1171 150H132.883C137.423 150 141.776 148.197 144.987 144.987C148.197 141.776 150 137.423 150 132.883V17.1171C150 12.5774 148.197 8.22357 144.987 5.01349C141.776 1.80341 137.423 0 132.883 0ZM110.156 77.8752L52.0752 112.28C51.5192 112.609 50.8849 112.783 50.2387 112.783C49.6465 112.782 49.0657 112.619 48.5604 112.31C48.0211 111.989 47.5779 111.529 47.2768 110.978C46.9758 110.428 46.8279 109.806 46.8486 109.179V40.3703C46.8244 39.7423 46.971 39.1196 47.2726 38.5683C47.5743 38.017 48.0198 37.5579 48.5617 37.2398C49.1037 36.9216 49.7217 36.7564 50.3501 36.7617C50.9785 36.767 51.5937 36.9426 52.1302 37.2698L110.185 71.6743C110.722 71.9955 111.166 72.451 111.473 72.996C111.781 73.541 111.941 74.1566 111.938 74.7823C111.936 75.4081 111.77 76.0223 111.458 76.5646C111.146 77.107 110.698 77.5586 110.158 77.8752H110.156Z" fill="#0275d8"/>
</svg>
